<svg width="476" height="438" viewBox="0 0 476 438" fill="none" xmlns="http://www.w3.org/2000/svg">
<path d="M195 316.5L222.5 268L237.5 253.5L253 268L281 316.5H195Z" fill="#D95140"/>
<path d="M196.585 15.2676C237.08 -8.15478 288.862 5.74509 312.242 46.3138L464.643 310.756C488.023 351.325 474.148 403.2 433.652 426.622C393.157 450.044 341.375 436.145 317.995 395.576L165.594 131.134C142.214 90.565 156.089 38.6899 196.585 15.2676Z" fill="#F4B400"/>
<path d="M42.3477 424.77C1.85204 401.347 -12.0228 349.472 11.3574 308.904L163.758 44.4615C187.138 3.89277 238.92 -10.0071 279.415 13.4153C319.911 36.8376 333.786 88.7127 310.406 129.281L158.005 393.724C134.625 434.292 82.8433 448.192 42.3477 424.77Z" fill="#0F9D58"/>
<path d="M323.075 84.8199C323.075 131.665 285.168 169.64 238.408 169.64C191.648 169.64 153.741 131.665 153.741 84.8199C153.741 37.9752 191.648 0 238.408 0C285.168 0 323.075 37.9752 323.075 84.8199Z" fill="#4285F4"/>
</svg>
